# xmcd
#
# Track frame offsets: 
#        150
#        12688
#        26102
#        38728
#        48120
#        59051
#        69938
#        84037
#        98013
#        111080
#        124715
#        135837
#        149183
#        162035
#        175086
#        190428
#        204235
#        216369
#        229465
#        242316
#
# Disc length: 3381 seconds
#
# Revision: 1
# Processed by: cddbd v1.5.2PL0 Copyright (c) Steve Scherf et al.
# Submitted via: ExactAudioCopyFreeDBPlugin 1.0
#
DISCID=130d3314
DTITLE=Lightnin' Slim, J.B. Lenoir - ABC Of The Blues - Vol. 23
DYEAR=2010
DGENRE=Blues
TTITLE0=Lightnin' Slim - Rock Me Mama
TTITLE1=Lightnin' Slim - Bad Luck
TTITLE2=Lightnin' Slim - New Orleans Bound
TTITLE3=Lightnin' Slim - Bugger Bugger Boy
TTITLE4=Lightnin' Slim - I'm A Rollin' Stone
TTITLE5=Lightnin' Slim - Hoodoo Man
TTITLE6=Lightnin' Slim - I'm Grown
TTITLE7=Lightnin' Slim - Nothing But The Devil
TTITLE8=Lightnin' Slim - Tom Cat Blues
TTITLE9=Lightnin' Slim - Wintertime Blues
TTITLE10=J.B. Lenoir - I Have Married
TTITLE11=J.B. Lenoir - How Much More
TTITLE12=J.B. Lenoir - Let's Roll Pt. 1
TTITLE13=J.B. Lenoir - The Mojo Pt. 1
TTITLE14=J.B. Lenoir - Slow Down Woman
TTITLE15=J.B. Lenoir - Louise
TTITLE16=J.B. Lenoir - When I Was Young
TTITLE17=J.B. Lenoir - Bassology
TTITLE18=J.B. Lenoir - Play A Little While
TTITLE19=J.B. Lenoir - Livin' In The White House
EXTD=
EXTT0=
EXTT1=
EXTT2=
EXTT3=
EXTT4=
EXTT5=
EXTT6=
EXTT7=
EXTT8=
EXTT9=
EXTT10=
EXTT11=
EXTT12=
EXTT13=
EXTT14=
EXTT15=
EXTT16=
EXTT17=
EXTT18=
EXTT19=
PLAYORDER=
